PathFileType	4	(X/Y/Z)	E:/Marcel_BSc/Marcel/30_01_2025/static_00_hjc.trc	
DataRate	CameraRate	NumFrames	NumMarkers	Units	OrigDataRate	OrigDataStartFrame	OrigNumFrames	
200.00	200.00	4	77	mm	200.00	99	158	
Frame#	Time	FHD			LBHD			RBHD			RBAR			LBAR			RASI			RSACR			LSACR			LASI			USACR			C7			CLAV			T10			RSHO			LSHO			LTHI1			LTHI3			LTHI2			LLFC			LMFC			LTIB1			LTIB2			LTIB3			LMMAL			LLMAL			LHEE			LMT1			LMT5			LMT3			RTHI1			RTHI2			RTHI3			RLFC			RMFC			RTIB1			RTIB3			RTIB2			RLMAL			RMMAL			RHEE			RMT5			RMT1			RMT3			LMEP			LLEP			LDUPA			LMUPA			LUUPA			LUL			LRAD			LRFIN			RUL			RRAD			RUFIN			RMEP			RLEP			RMUPA			RDUPA			RUUPA			*59			*60			*61			*62			*63			*64			*65			*66			*67			*68			*69			*70			LAJC			RAJC			LKJC			RKJC			LHJC			RHJC			
		X1	Y1	Z1	X2	Y2	Z2	X3	Y3	Z3	X4	Y4	Z4	X5	Y5	Z5	X6	Y6	Z6	X7	Y7	Z7	X8	Y8	Z8	X9	Y9	Z9	X10	Y10	Z10	X11	Y11	Z11	X12	Y12	Z12	X13	Y13	Z13	X14	Y14	Z14	X15	Y15	Z15	X16	Y16	Z16	X17	Y17	Z17	X18	Y18	Z18	X19	Y19	Z19	X20	Y20	Z20	X21	Y21	Z21	X22	Y22	Z22	X23	Y23	Z23	X24	Y24	Z24	X25	Y25	Z25	X26	Y26	Z26	X27	Y27	Z27	X28	Y28	Z28	X29	Y29	Z29	X30	Y30	Z30	X31	Y31	Z31	X32	Y32	Z32	X33	Y33	Z33	X34	Y34	Z34	X35	Y35	Z35	X36	Y36	Z36	X37	Y37	Z37	X38	Y38	Z38	X39	Y39	Z39	X40	Y40	Z40	X41	Y41	Z41	X42	Y42	Z42	X43	Y43	Z43	X44	Y44	Z44	X45	Y45	Z45	X46	Y46	Z46	X47	Y47	Z47	X48	Y48	Z48	X49	Y49	Z49	X50	Y50	Z50	X51	Y51	Z51	X52	Y52	Z52	X53	Y53	Z53	X54	Y54	Z54	X55	Y55	Z55	X56	Y56	Z56	X57	Y57	Z57	X58	Y58	Z58	X59	Y59	Z59	X60	Y60	Z60	X61	Y61	Z61	X62	Y62	Z62	X63	Y63	Z63	X64	Y64	Z64	X65	Y65	Z65	X66	Y66	Z66	X67	Y67	Z67	X68	Y68	Z68	X69	Y69	Z69	X70	Y70	Z70	X71	Y71	Z71	X72	Y72	Z72	X73	Y73	Z73	X74	Y74	Z74	X75	Y75	Z75	X76	Y76	Z76	X77	Y77	Z77	

99	0.490	101.98647	581.14618	1817.54199	134.45560	522.73218	1803.17554	130.63620	651.93085	1801.27417	1237.75574	1766.99243	37.49924	1247.99084	-457.98206	32.42352	101.62167	723.77557	1048.33142	310.52408	621.34265	1098.08044	306.37241	557.43408	1095.19873	95.96256	458.76010	1038.77661	302.17294	589.30328	1111.97229	278.97092	583.74695	1567.20483	116.67471	585.02673	1531.52014	282.32864	577.56348	1257.57874	239.89940	734.46533	1605.27979	223.62086	417.51434	1595.70032	228.83215	410.08823	706.98431	258.34824	428.68719	651.23975	211.33014	408.01315	643.80640	221.76129	415.21088	524.76782	174.91882	517.14667	506.36533	222.46391	400.13364	276.37991	269.63885	381.01959	274.89401	242.95502	391.85168	214.26593	268.10590	468.11115	92.39407	287.09717	380.57208	83.67075	343.99252	422.31161	39.00974	115.27324	434.41623	41.42587	145.15425	352.03259	26.11919	122.68697	388.94177	36.07079	208.11642	793.26465	674.78070	255.20512	773.90302	671.00873	226.55206	781.84485	613.15112	203.44011	778.36981	529.39813	179.69012	682.05920	508.73782	260.01208	811.53369	277.72977	291.59705	814.01971	219.53371	240.80836	809.94788	214.44521	292.82532	813.68762	75.43855	245.16882	736.39471	71.11699	340.13992	765.26984	30.56116	173.11317	862.67987	26.13285	109.42834	788.44043	42.55418	134.10344	828.99469	40.15177	161.26947	114.69096	1470.22058	234.08046	116.29153	1509.60815	259.95218	217.49622	1524.04126	227.17523	219.37303	1561.86218	236.11264	281.52710	1565.74585	171.00745	-167.20688	1563.57471	141.56087	-136.20920	1628.42664	167.95239	-235.57961	1657.66748	216.31557	1342.01257	1590.88000	195.28342	1308.70374	1657.87085	226.12921	1395.25830	1680.54590	178.62419	1045.43823	1483.96436	247.84399	1057.86206	1539.34546	246.59296	910.60559	1577.38977	254.48802	970.89185	1564.57263	281.44632	899.08411	1542.40503	116.12386	626.95105	1750.65198	124.98546	537.28339	1729.84717				74.21133	553.71320	1742.28528	145.02155	616.74976	1735.78772	2029.56714	-1593.40088	-1465.38098	-201.43439	-469.88934	23.53388				40.36507	650.02502	1771.50745	30.55339	555.46210	1775.98267							277.60153	424.34161	88.03241	268.99707	775.04117	73.27777	198.34006	466.17877	515.56657	191.56512	730.21451	519.06798	201.16748	508.09709	1066.98767	206.07288	672.55911	1073.20593 
100	0.495	101.95863	581.19574	1817.54517	134.42377	522.77521	1803.17688	130.60643	651.96735	1801.25842	1237.75659	1766.98547	37.49745	1247.94678	-457.96893	32.32468	101.90405	724.35529	1048.51343	310.56564	621.35773	1098.08215	306.41800	557.43585	1095.17029	96.00484	458.75644	1038.78894	302.20007	589.31415	1111.96497	278.97913	583.76019	1567.20996	116.67292	585.04901	1531.52283	282.36462	577.57550	1257.59229	239.91055	734.47009	1605.27063	223.62616	417.52298	1595.70325	228.84256	410.07959	706.99103	258.35889	428.68130	651.23468	211.33511	408.00342	643.81567	221.75964	415.20505	524.77368	174.92302	517.14587	506.37106	222.47952	400.13068	276.37448	269.64438	381.01828	274.89175	243.06824	391.89240	214.26823	268.06125	468.09537	92.45941	287.09933	380.58008	83.67203	343.94101	422.35803	38.98569	115.26767	434.41641	41.42982	145.15318	352.03119	26.12478	122.68573	388.94397	36.08015	208.37489	793.01093	674.98584	255.23701	773.87048	671.00494	226.52258	781.89240	613.07471	203.43256	778.37225	529.40436	179.69962	682.05347	508.74017	260.00787	811.53320	277.74231	291.57645	814.01245	219.53000	240.80840	809.94550	214.44107	292.82956	813.67743	75.44455	245.17323	736.38940	71.12325	339.91571	765.12488	30.51993	173.11063	862.67377	26.13949	109.43025	788.42151	42.56071	134.10905	828.98236	40.15991	161.30879	114.68585	1470.21606	234.08171	116.30608	1509.62830	259.96695	217.49916	1524.07483	227.20676	219.82790	1561.66492	236.07918	281.56363	1565.67468	171.05479	-167.19989	1563.59680	141.57901	-136.19977	1628.43835	167.96558	-235.57744	1657.69446	216.30544	1342.01990	1590.88184	195.27225	1308.71008	1657.87256	226.09544	1395.26660	1680.55151	178.62169	1045.46826	1483.95532	247.90768	1057.84814	1539.30542	246.61636	910.60718	1577.38306	254.52275	970.88354	1564.55957	281.47119	899.08563	1542.40015	117.99552	629.43280	1749.52283	124.95578	537.32324	1729.88306	926.10364	518.13812	571.31940	74.23382	553.74792	1742.29614	142.44099	613.02954	1737.38904				-201.33441	-469.97046	23.70155							30.49012	555.48090	1776.02258							277.58029	424.33772	88.06572	269.00140	775.03342	73.28390	198.34133	466.17546	515.57237	191.56609	730.21286	519.07227	201.21142	508.09615	1066.97961	206.23484	672.85651	1073.29779 
101	0.500	101.93831	581.24243	1817.54272	134.40533	522.80878	1803.17883	130.57750	652.01007	1801.24805	1237.76221	1766.98120	37.49665	1247.99951	-457.98132	32.43707	101.64980	723.73108	1048.34607	310.58481	621.37762	1098.06104	306.44193	557.43884	1095.17358	96.03790	458.74127	1038.80151	302.23520	589.31390	1111.95593	278.98923	583.76849	1567.21924	116.68038	585.05890	1531.53503	282.39780	577.58453	1257.60034	239.89061	734.48114	1605.26294	223.63670	417.52158	1595.71338	228.84792	410.07422	706.99084	258.39490	428.66583	651.23969	211.32808	407.99655	643.80988	221.76071	415.19763	524.76990	174.92273	517.13397	506.35294	222.47440	400.11963	276.37112	269.64182	381.02335	274.89075	242.95695	391.85306	214.26749	268.10764	468.11163	92.40338	287.10034	380.57953	83.66906	343.94589	422.37167	38.97353	115.27333	434.40701	41.42507	145.15956	352.03061	26.12986	122.67999	388.93881	36.07820	208.12930	793.23621	674.81696	255.23950	773.87811	671.00903	226.51898	781.83429	613.25085	203.42520	778.38086	529.39496	179.69705	682.05042	508.73965	260.00629	811.52417	277.73334	291.61536	814.01019	219.50429	240.81242	809.93817	214.44850	292.82480	813.68182	75.44613	245.17342	736.38977	71.11745	339.89999	765.11005	30.51400	173.10950	862.68494	26.12967	109.43102	788.42596	42.55592	134.09219	828.98114	40.16706	161.30612	114.68949	1470.23486	234.10347	116.30708	1509.62585	259.97900	217.49004	1524.09082	227.21158	219.87321	1561.66528	236.09326	281.56918	1565.69507	171.06210	-167.18446	1563.60510	141.61180	-136.20438	1628.44690	167.80139	-235.73743	1657.60120	216.30968	1342.03772	1590.87756	195.26085	1308.72241	1657.86035	226.05338	1395.29138	1680.56641	178.68877	1045.45422	1483.95642	247.93591	1057.85608	1539.30859	246.64607	910.60510	1577.36670	254.54198	970.87817	1564.53967	281.48587	899.08398	1542.38440	118.72441	630.33704	1749.08667	124.92842	537.38074	1729.88147				74.23963	553.74182	1742.30664	141.89638	612.53772	1737.46790	82.40755	593.06024	1779.48535	-201.02867	-469.82681	23.84523	40.36870	650.12006	1771.86169	2066.45654	-1608.87866	-1491.41956	30.46818	555.51624	1776.00513	1239.45215	-61.75370	56.93877				277.60399	424.34558	88.03622	268.99911	775.03580	73.28179	198.34172	466.16580	515.56142	191.56113	730.21564	519.06731	201.23991	508.09006	1066.98755	206.11731	672.55435	1073.20355 
102	0.505	101.92120	581.28021	1817.54456	134.39555	522.84833	1803.18848	130.56104	652.03992	1801.23914	1237.75940	1766.98132	37.50491	1248.03174	-457.81360	32.28461	101.93441	724.31714	1048.52100	310.61734	621.36719	1098.05298	306.49265	557.43347	1095.15979	96.07294	458.74063	1038.81445	302.25650	589.33148	1111.95288	278.98853	583.77893	1567.21497	116.68826	585.06744	1531.54321	282.40604	577.61041	1257.60828	239.87564	734.49139	1605.26147	223.65327	417.53259	1595.70972	228.86392	410.07132	706.99103	258.38187	428.66736	651.24908	211.33591	407.98648	643.81525	221.75525	415.19168	524.76794	174.92729	517.12128	506.35245	222.47356	400.11920	276.35901	269.64554	381.01172	274.88986	242.94849	391.85208	214.25891	268.11020	468.10767	92.41378	287.10193	380.58038	83.67168	343.96219	422.31845	39.02140	115.26878	434.41104	41.42851	145.16347	352.03055	26.12673	122.68307	388.93445	36.07711	208.36412	793.01105	674.97534	255.23410	773.90222	671.01807	226.57335	781.84503	613.11285	203.43153	778.36102	529.40417	179.68744	682.04016	508.74149	259.98889	811.53967	277.73428	291.58853	814.01660	219.51570	240.80215	809.93726	214.44781	292.81519	813.68329	75.44680	245.16861	736.38727	71.12012	340.14133	765.27570	30.56354	173.10390	862.67871	26.13966	109.43295	788.43262	42.55236	134.11897	828.96521	40.16922	161.18974	114.72993	1470.43787	234.10059	116.31899	1509.63464	259.98831	217.48434	1524.10364	227.23338	219.85765	1561.67432	235.98582	281.30865	1565.66223	171.08191	-167.18695	1563.61646	141.61607	-136.20264	1628.46265	168.01175	-235.58536	1657.71973	216.31897	1342.05847	1590.88684	195.25391	1308.73059	1657.85620	226.03934	1395.29028	1680.57202	178.69977	1045.48132	1483.93958	247.88898	1057.90356	1539.34680	246.65787	910.60681	1577.36328	254.57420	970.88159	1564.54700	281.49847	899.08325	1542.38232				124.92979	537.39014	1729.85608	76.61323	575.00726	1759.93115	74.20535	553.81848	1742.30359	144.34225	616.16229	1735.89990	82.45493	593.61719	1779.44324	-201.35851	-469.91223	23.63653							30.42575	555.52039	1776.02905				2015.38586	-1582.15747	-1454.84949	277.60606	424.34402	88.04273	268.99190	775.03528	73.28346	198.34127	466.15648	515.56020	191.55949	730.20059	519.07283	201.28279	508.08705	1066.98712	206.27588	672.84216	1073.28699 
